<mxfile host="app.diagrams.net" modified="2022-04-12T02:21:36.909Z" agent="5.0 (Windows NT 10.0; Win64; x64) AppleWebKit/537.36 (KHTML, like Gecko) Chrome/100.0.4896.75 Safari/537.36" etag="ddBgF61SUU7enYvE3BK0" version="17.4.2" type="github">
  <diagram id="tzKrbbRHZQo1XcLAo8vA" name="Page-1">
    <mxGraphModel dx="2062" dy="1066" grid="1" gridSize="10" guides="1" tooltips="1" connect="1" arrows="1" fold="1" page="1" pageScale="1" pageWidth="1169" pageHeight="827" math="0" shadow="0">
      <root>
        <mxCell id="0" />
        <mxCell id="1" parent="0" />
        <mxCell id="DKBw_YsnpzOcfdJ7L1JV-10" value="" style="edgeStyle=orthogonalEdgeStyle;rounded=0;orthogonalLoop=1;jettySize=auto;html=1;" edge="1" parent="1" source="MPqytqtSnUPRrtiybiTf-2" target="DKBw_YsnpzOcfdJ7L1JV-9">
          <mxGeometry relative="1" as="geometry" />
        </mxCell>
        <mxCell id="MPqytqtSnUPRrtiybiTf-2" value="Initial Candidate Generation" style="rounded=0;whiteSpace=wrap;html=1;" parent="1" vertex="1">
          <mxGeometry x="495" y="144" width="180" height="90" as="geometry" />
        </mxCell>
        <mxCell id="DKBw_YsnpzOcfdJ7L1JV-12" value="" style="edgeStyle=orthogonalEdgeStyle;rounded=0;orthogonalLoop=1;jettySize=auto;html=1;" edge="1" parent="1" source="DKBw_YsnpzOcfdJ7L1JV-9" target="DKBw_YsnpzOcfdJ7L1JV-11">
          <mxGeometry relative="1" as="geometry" />
        </mxCell>
        <mxCell id="DKBw_YsnpzOcfdJ7L1JV-9" value="&lt;span&gt;Sample Elimination&lt;/span&gt;" style="whiteSpace=wrap;html=1;rounded=0;" vertex="1" parent="1">
          <mxGeometry x="495" y="254" width="180" height="90" as="geometry" />
        </mxCell>
        <mxCell id="DKBw_YsnpzOcfdJ7L1JV-14" value="" style="edgeStyle=orthogonalEdgeStyle;rounded=0;orthogonalLoop=1;jettySize=auto;html=1;" edge="1" parent="1" source="DKBw_YsnpzOcfdJ7L1JV-11" target="DKBw_YsnpzOcfdJ7L1JV-13">
          <mxGeometry relative="1" as="geometry" />
        </mxCell>
        <mxCell id="DKBw_YsnpzOcfdJ7L1JV-11" value="Radiance Estimation" style="whiteSpace=wrap;html=1;rounded=0;" vertex="1" parent="1">
          <mxGeometry x="495" y="364" width="180" height="90" as="geometry" />
        </mxCell>
        <mxCell id="DKBw_YsnpzOcfdJ7L1JV-16" value="" style="edgeStyle=orthogonalEdgeStyle;rounded=0;orthogonalLoop=1;jettySize=auto;html=1;" edge="1" parent="1" source="DKBw_YsnpzOcfdJ7L1JV-13" target="DKBw_YsnpzOcfdJ7L1JV-15">
          <mxGeometry relative="1" as="geometry" />
        </mxCell>
        <mxCell id="DKBw_YsnpzOcfdJ7L1JV-13" value="Emission Profile Conversion" style="whiteSpace=wrap;html=1;rounded=0;" vertex="1" parent="1">
          <mxGeometry x="495" y="478" width="180" height="90" as="geometry" />
        </mxCell>
        <mxCell id="DKBw_YsnpzOcfdJ7L1JV-15" value="Shading" style="whiteSpace=wrap;html=1;rounded=0;" vertex="1" parent="1">
          <mxGeometry x="495" y="594" width="180" height="90" as="geometry" />
        </mxCell>
      </root>
    </mxGraphModel>
  </diagram>
</mxfile>
